<?xml version="1.0" encoding="utf-8"?>
<!-- Generator: Adobe Illustrator 25.2.1, SVG Export Plug-In . SVG Version: 6.00 Build 0)  -->
<svg version="1.1" id="Layer_1" xmlns="http://www.w3.org/2000/svg" xmlns:xlink="http://www.w3.org/1999/xlink" x="0px" y="0px"
	 viewBox="0 0 100 100" style="enable-background:new 0 0 100 100;" xml:space="preserve">
<style type="text/css">
	.st0{fill:#FFFFFF;}
</style>
<g>
	<path class="st0" d="M69,34.5L48.9,20.2c-0.4-0.3-0.9-0.3-1.3,0L27.5,34.5C27.2,34.7,27,35,27,35.4v33.9c0,0.4,0.2,0.7,0.5,0.9
		l20.1,14.4c0.2,0.1,0.4,0.2,0.7,0.2s0.5-0.1,0.7-0.2L69,70.2c0.3-0.2,0.5-0.6,0.5-0.9V35.4C69.4,35,69.3,34.7,69,34.5z M29.3,36.8
		l8.1,4.5v22.1l-8.1,4.5V36.8z M58.4,40.1l-9.5-6.6V23l17.7,12.6L58.4,40.1z M48.2,69.1l-8.9-6V41.5l8.9-6.2l8.9,6.2v21.6L48.2,69.1
		z M47.5,33.5L38,40.1l-8.2-4.5L47.5,23V33.5z M38,64.6l9.5,6.4v10.8L29.8,69.1L38,64.6z M48.9,71l9.5-6.4l8.2,4.5L48.9,81.8V71z
		 M59.1,63.4V41.3l8.1-4.5v31.1L59.1,63.4z M36.9,16.2c-0.2-0.2-0.3-0.5-0.3-0.9c0-0.3,0.1-0.6,0.3-0.8c0.5-0.4,1.2-0.4,1.7,0
		c0.2,0.2,0.3,0.5,0.3,0.8c0,0.3-0.1,0.6-0.3,0.9c-0.2,0.2-0.5,0.4-0.8,0.4C37.4,16.5,37.1,16.4,36.9,16.2z M57.1,14.8
		c0-0.5,0.4-0.9,0.9-0.9h1.3v-1.3c0-0.5,0.4-0.9,0.9-0.9s0.9,0.4,0.9,0.9v1.3h1.3c0.5,0,0.9,0.4,0.9,0.9s-0.4,0.9-0.9,0.9h-1.3V17
		c0,0.5-0.4,0.9-0.9,0.9s-0.9-0.4-0.9-0.9v-1.3H58C57.5,15.7,57.1,15.3,57.1,14.8z M20.3,63.2c0.2,0.2,0.4,0.5,0.4,0.8
		s-0.1,0.6-0.4,0.8c-0.2,0.2-0.5,0.3-0.8,0.3s-0.6-0.1-0.8-0.3s-0.4-0.5-0.4-0.8c0-0.3,0.1-0.6,0.4-0.8C19,62.7,19.8,62.7,20.3,63.2
		z M34.5,85.2c0,0.5-0.4,0.9-0.9,0.9h-1.3v1.3c0,0.5-0.4,0.9-0.9,0.9s-0.9-0.4-0.9-0.9v-1.3h-1.3c-0.5,0-0.9-0.4-0.9-0.9
		s0.4-0.9,0.9-0.9h1.3V83c0-0.5,0.4-0.9,0.9-0.9s0.9,0.4,0.9,0.9v1.3h1.3C34.1,84.3,34.5,84.7,34.5,85.2z M61.7,86.5
		c0.2,0.2,0.3,0.5,0.3,0.8s-0.1,0.6-0.3,0.8c-0.2,0.2-0.5,0.3-0.8,0.3s-0.6-0.1-0.8-0.3c-0.2-0.2-0.3-0.5-0.3-0.8s0.1-0.6,0.3-0.8
		C60.5,86.1,61.3,86.1,61.7,86.5z M81.5,66.2c0,0.5-0.4,0.9-0.9,0.9h-1.3v1.3c0,0.5-0.4,0.9-0.9,0.9s-0.9-0.4-0.9-0.9v-1.3h-1.3
		c-0.5,0-0.9-0.4-0.9-0.9s0.4-0.9,0.9-0.9h1.3V64c0-0.5,0.4-0.9,0.9-0.9s0.9,0.4,0.9,0.9v1.3h1.3C81.1,65.3,81.5,65.7,81.5,66.2z"/>
</g>
</svg>
